<svg width="24" height="25" viewBox="0 0 24 25" fill="none" xmlns="http://www.w3.org/2000/svg">
<g clipPath="url(#clip0_1_22721)">
  <path d="M24 13.0625C24 19.6899 18.6274 25.0625 12 25.0625C5.37258 25.0625 0 19.6899 0 13.0625C0 6.43508 5.37258 1.0625 12 1.0625C18.6274 1.0625 24 6.43508 24 13.0625Z" fill="url(#paint0_linear_1_22721)" />
  <path d="M24 13.0625C24 19.6899 18.6274 25.0625 12 25.0625C5.37258 25.0625 0 19.6899 0 13.0625C0 6.43508 5.37258 1.0625 12 1.0625C18.6274 1.0625 24 6.43508 24 13.0625Z" fill="url(#paint1_linear_1_22721)" />
  <path d="M10.08 16.6625V24.8225C10.08 24.955 10.1875 25.0625 10.32 25.0625H13.68C13.8125 25.0625 13.92 24.955 13.92 24.8225V16.6625C13.92 16.53 14.0275 16.4225 14.16 16.4225H16.56C16.6925 16.4225 16.8 16.315 16.8 16.1825V13.3025C16.8 13.17 16.6925 13.0625 16.56 13.0625H14.16C14.0275 13.0625 13.92 12.9552 13.92 12.8227V10.6625C13.92 9.7025 15.12 9.2225 15.6 9.2225H17.04C17.1725 9.2225 17.28 9.11505 17.28 8.9825V6.1025C17.28 5.96995 17.1726 5.8625 17.04 5.8625H13.92C11.616 5.8625 10.08 8.2625 10.08 9.7025V12.8225C10.08 12.955 9.97255 13.0625 9.84 13.0625H7.44C7.30745 13.0625 7.2 13.17 7.2 13.3025V16.1825C7.2 16.315 7.30745 16.4225 7.44 16.4225H9.84C9.97255 16.4225 10.08 16.53 10.08 16.6625Z" fill="white" />
</g>
<defs>
  <linearGradient id="paint0_linear_1_22721" x1="12" y1="1.0625" x2="12" y2="25.0625" gradientUnits="userSpaceOnUse">
    <stop stopColor="#18ACFE" />
    <stop offset="1" stopColor="#0165E1" />
  </linearGradient>
  <linearGradient id="paint1_linear_1_22721" x1="12" y1="1.0625" x2="12" y2="25.0625" gradientUnits="userSpaceOnUse">
    <stop stopColor="#18ACFE" />
    <stop offset="1" stopColor="#0165E1" />
  </linearGradient>
  <clipPath id="clip0_1_22721">
    <rect width="24" height="24" fill="white" transform="translate(0 0.9375)" />
  </clipPath>
</defs>
</svg>